# xmcd
#
# Track frame offsets: 
#        150
#        18277
#        37272
#        54775
#        67695
#        74020
#        88247
#        106082
#        128945
#        142242
#        152885
#        161992
#
# Disc length: 2280 seconds
#
# Revision: 0
# Processed by: cddbd v1.5.2PL0 Copyright (c) Steve Scherf et al.
# Submitted via: ExactAudioCopy v1.3
#
DISCID=ab08e60c
DTITLE=有山じゅんじ - 不thinkin' of you
DYEAR=1900
DGENRE=Folk
TTITLE0=Ain't nobody's business
TTITLE1=光る雪
TTITLE2=Think of you
TTITLE3=ドレミファ、ソッと暮らしてる
TTITLE4=It's only paper moon    
TTITLE5=Wabash rag
TTITLE6=いつかあの娘が戻ってきたら
TTITLE7=碧い夜
TTITLE8=ありやまな夜だ
TTITLE9=Over the rainbow
TTITLE10=５０歳
TTITLE11=光る雪
EXTD=
EXTT0=
EXTT1=
EXTT2=
EXTT3=
EXTT4=
EXTT5=
EXTT6=
EXTT7=
EXTT8=
EXTT9=
EXTT10=
EXTT11=
PLAYORDER=
